<svg xmlns="http://www.w3.org/2000/svg" viewBox="0 0 35.08 238.73"><title>contact-button</title><g id="Layer_2" data-name="Layer 2"><g id="Layer_1-2" data-name="Layer 1"><path d="M2.28,8.84A16.79,16.79,0,0,1,8.55,2.35a17.36,17.36,0,0,1,9-2.35,17.36,17.36,0,0,1,9,2.35,16.69,16.69,0,0,1,6.28,6.52,19.18,19.18,0,0,1,2.27,9.31,19.58,19.58,0,0,1-1.34,7.35,15,15,0,0,1-4,5.68L26.66,28a12.78,12.78,0,0,0,4.06-9.65A14,14,0,0,0,29,11.47a12.48,12.48,0,0,0-4.73-4.83A13.25,13.25,0,0,0,17.54,4.9,13.25,13.25,0,0,0,10.8,6.64a12.38,12.38,0,0,0-4.72,4.83,13.89,13.89,0,0,0-1.72,6.91A12.78,12.78,0,0,0,8.48,28L5.39,31.21a15.28,15.28,0,0,1-4-5.71A19.34,19.34,0,0,1,0,18.13,19,19,0,0,1,2.28,8.84Z"/><path d="M2.28,43.61a16.79,16.79,0,0,1,6.3-6.54,17.18,17.18,0,0,1,9-2.38,17.24,17.24,0,0,1,9,2.38,16.79,16.79,0,0,1,6.3,6.54A19.29,19.29,0,0,1,35.08,53a19.18,19.18,0,0,1-2.27,9.31,16.76,16.76,0,0,1-6.28,6.52,17.45,17.45,0,0,1-9,2.35,17.45,17.45,0,0,1-9-2.35,16.8,16.8,0,0,1-6.27-6.52A19.07,19.07,0,0,1,0,53,19.19,19.19,0,0,1,2.28,43.61Zm3.8,16.14a12.54,12.54,0,0,0,4.72,4.76,13.25,13.25,0,0,0,6.74,1.74,13.25,13.25,0,0,0,6.74-1.74A12.64,12.64,0,0,0,29,59.75,13.47,13.47,0,0,0,30.72,53,13.78,13.78,0,0,0,29,46.13a12.54,12.54,0,0,0-4.73-4.8,13.25,13.25,0,0,0-6.74-1.74,13.25,13.25,0,0,0-6.74,1.74,12.44,12.44,0,0,0-4.72,4.8A13.68,13.68,0,0,0,4.36,53,13.38,13.38,0,0,0,6.08,59.75Z"/><path d="M34.45,107.73H.45v-3l25.36-21H.45v-5h34v3l-25.35,21H34.45Z"/><path d="M30.45,124.73v-11h4v28h-4v-12H.45v-5Z"/><path d="M9.45,167.79V148.66l-9-4v-4.26l34,15.4v4.81L.45,176.1v-4.35Zm3-2.17,16.81-7.4-16.81-7.4Z"/><path d="M2.28,186.91a16.79,16.79,0,0,1,6.27-6.49,17.36,17.36,0,0,1,9-2.35,17.36,17.36,0,0,1,9,2.35,16.69,16.69,0,0,1,6.28,6.52,19.15,19.15,0,0,1,2.27,9.31,19.66,19.66,0,0,1-1.34,7.35,15,15,0,0,1-4,5.68l-3.08-3.19a12.76,12.76,0,0,0,4.06-9.65A14,14,0,0,0,29,189.53a12.45,12.45,0,0,0-4.73-4.82A13.25,13.25,0,0,0,17.54,183a13.25,13.25,0,0,0-6.74,1.74,12.36,12.36,0,0,0-4.72,4.82,13.92,13.92,0,0,0-1.72,6.91,12.78,12.78,0,0,0,4.12,9.65l-3.09,3.19a15.36,15.36,0,0,1-4-5.71A19.38,19.38,0,0,1,0,196.2,18.94,18.94,0,0,1,2.28,186.91Z"/><path d="M30.45,222.73v-12h4v28h-4v-11H.45v-5Z"/></g></g></svg>