<svg xmlns="http://www.w3.org/2000/svg" viewBox="0 0 316 35.08"><title>experience-button</title><g id="Layer_2" data-name="Layer 2"><g id="Layer_1-2" data-name="Layer 1"><path d="M25,30.18v4H0V.18H24v4H5v11H22v4H5v11Z"/><path d="M54.06,34.18l-10.2-14-10.06,14H28.21L41,16.74,29,.18h5.54l9.52,13.07L53.47.18h5.3l-12,16.42L59.64,34.18Z"/><path d="M88,3.38a10.83,10.83,0,0,1,3.84,8.8A10.83,10.83,0,0,1,88,21q-3.84,3.19-10.52,3.2H69v10H64V.18H77.43Q84.12.18,88,3.38Zm-3.9,14.86a6.73,6.73,0,0,0,2.39-5.56,6.76,6.76,0,0,0-2.39-5.57c-1.6-1.29-3.9-1.93-6.93-1.93H69v15h8.12C80.15,20.18,82.45,19.53,84.05,18.24Z"/><path d="M124,30.18v4H99V.18h24v4H104v11h17v4H104v11Z"/><path d="M154.28,34.18l-7.09-10.09q-1.32.09-2.07.09H137v10h-5V.18h13.65q6.79,0,10.7,3.16a10.56,10.56,0,0,1,3.9,8.69,11.15,11.15,0,0,1-2,6.7,11.29,11.29,0,0,1-5.7,4l8.3,11.41ZM152,18.23a6.78,6.78,0,0,0,2.38-5.57A6.7,6.7,0,0,0,152,7.11q-2.38-1.93-6.9-1.93H137v15h8.1Q149.62,20.18,152,18.23Z"/><path d="M168,.18h5v34h-5Z"/><path d="M208,30.18v4H183V.18h24v4H188v11h17v4H188v11Z"/><path d="M245,.18v34h-3L221,8.83V34.18h-5V.18h3l21,25.35V.18Z"/><path d="M261.63,32.81a16.75,16.75,0,0,1-6.49-6.28,17.36,17.36,0,0,1-2.35-9,17.36,17.36,0,0,1,2.35-9,16.74,16.74,0,0,1,6.52-6.27A19,19,0,0,1,271,0a19.39,19.39,0,0,1,7.35,1.35,15.11,15.11,0,0,1,5.68,4l-3.18,3.09a12.79,12.79,0,0,0-9.66-4.07,14,14,0,0,0-6.91,1.72,12.49,12.49,0,0,0-4.82,4.72,13.25,13.25,0,0,0-1.74,6.74,13.25,13.25,0,0,0,1.74,6.74A12.52,12.52,0,0,0,264.25,29a14,14,0,0,0,6.91,1.71,12.83,12.83,0,0,0,9.66-4.11L284,29.69a15.13,15.13,0,0,1-5.71,4,20.3,20.3,0,0,1-16.66-.9Z"/><path d="M316,30.18v4H291V.18h24v4H296v11h17v4H296v11Z"/></g></g></svg>